<?xml version="1.0" encoding="UTF-8" standalone="no"?><svg xmlns="http://www.w3.org/2000/svg" xmlns:xlink="http://www.w3.org/1999/xlink" contentScriptType="text/ecmascript" fill="#ffbd59" width="484.4" zoomAndPan="magnify" contentStyleType="text/css" viewBox="13.8 1.0 484.4 510.8" height="510.8" preserveAspectRatio="xMidYMid meet" version="1"><g><g><g><g id="change1_6"><path d="M465.557,250.999H46.443c-5.523,0-10-4.477-10-10c0-103.447,79.622-181.002,177.794-197.676 c5.454-0.928,10.609,2.74,11.533,8.184c0.925,5.445-2.739,10.608-8.184,11.533C126.298,78.546,61.5,146.875,56.727,230.999 h398.568c-2.308-43.528-19.934-80.438-54.951-115.433c-26.055-26.076-65.65-45.71-105.925-52.525 c-5.445-0.921-9.112-6.082-8.19-11.528c0.92-5.444,6.073-9.111,11.528-8.191c44.876,7.594,87.423,28.771,116.73,58.103 c41.092,41.066,61.069,86.723,61.069,139.574C475.557,246.522,471.079,250.999,465.557,250.999z"/></g><g id="change1_1"><path d="M279.284,251h-46.568c-5.173,0-9.492-3.945-9.959-9.098L201.924,11.902 c-0.531-5.851,4.083-10.902,9.959-10.902h88.234c5.875,0,10.49,5.05,9.959,10.902l-20.833,230.001 C288.776,247.055,284.457,251,279.284,251z M241.851,231h28.299l19.021-210.001h-66.342L241.851,231z"/></g><g id="change1_7"><path d="M468.212,290.999H43.788c-16.541,0-29.999-13.458-29.999-30c0-16.541,13.458-29.999,29.999-29.999 h424.424c16.541,0,29.999,13.458,29.999,29.999C498.211,277.541,484.753,290.999,468.212,290.999z M43.788,251 c-5.514,0-9.999,4.485-9.999,9.999c0,5.514,4.485,10,9.999,10h424.424c5.514,0,9.999-4.486,9.999-10 c0-5.514-4.485-9.999-9.999-9.999H43.788z"/></g><g id="change1_2"><path d="M348.496,156.599c-5.379-1.253-8.724-6.629-7.471-12.008l16.006-68.724 c1.252-5.379,6.626-8.724,12.008-7.471c5.379,1.253,8.724,6.629,7.471,12.008l-16.006,68.724 C359.251,154.507,353.875,157.851,348.496,156.599z"/></g><g id="change1_5"><path d="M151.178,149.14l-15.372-67.749c-1.223-5.386,2.153-10.743,7.539-11.965 c5.389-1.226,10.743,2.153,11.965,7.539l15.372,67.749c1.223,5.386-2.153,10.743-7.539,11.965 C157.745,157.903,152.397,154.515,151.178,149.14z"/></g><g id="change1_8"><path d="M279.893,501.797c-0.99-12.357-11.484-22.038-23.893-22.038s-22.902,9.681-23.893,22.038 c-0.464,5.806-5.784,10.007-11.577,9.072c-14.43-2.353-28.613-6.143-42.158-11.267c-5.465-2.068-8.005-8.37-5.492-13.649 c5.332-11.207,1.083-24.853-9.672-31.065c-10.741-6.194-24.665-3.06-31.695,7.137c-1.587,2.302-4.065,3.834-6.834,4.225 c-2.771,0.394-5.574-0.395-7.737-2.167c-11.271-9.238-21.647-19.614-30.839-30.838c-3.699-4.519-2.755-11.245,2.057-14.565 c10.2-7.041,13.332-20.97,7.131-31.711c-6.21-10.764-19.853-15.006-31.055-9.664c-5.281,2.517-11.591-0.016-13.66-5.491 c-5.141-13.604-8.931-27.792-11.267-42.171c-0.935-5.767,3.252-11.109,9.079-11.572c10.431-0.829,22.042-22.805,22.042-37.071 c0-5.523,4.478-10,10-10H431.57c5.522,0,10,4.477,10,10c0,14.267,11.611,36.242,22.042,37.071 c5.823,0.463,10.015,5.802,9.079,11.572c-2.336,14.379-6.126,28.567-11.267,42.171c-2.069,5.473-8.378,8.01-13.66,5.491 c-11.204-5.344-24.844-1.101-31.053,9.661c-6.203,10.744-3.071,24.673,7.129,31.714c4.805,3.316,5.76,10.041,2.057,14.565 c-9.191,11.224-19.567,21.6-30.839,30.838c-4.531,3.713-11.259,2.747-14.571-2.058c-7.032-10.196-20.957-13.331-31.701-7.133 c-10.749,6.208-14.998,19.854-9.666,31.061c2.51,5.276-0.023,11.58-5.492,13.649c-13.545,5.123-27.728,8.913-42.158,11.267 C285.674,511.809,280.356,507.598,279.893,501.797z M256,459.759c18.988,0,35.533,12.363,41.552,29.628 c6.791-1.44,13.497-3.23,20.065-5.357c-3.425-17.968,4.722-36.958,21.171-46.459c16.441-9.482,36.936-7.051,50.774,4.869 c5.149-4.643,10.06-9.553,14.691-14.688c-11.926-13.847-14.352-34.349-4.864-50.782c9.499-16.465,28.495-24.616,46.463-21.171 c2.209-6.821,4.052-13.772,5.512-20.799c-15.115-7.482-25.621-27.171-28.792-44H89.428c-3.171,16.829-13.677,36.518-28.792,44 c1.46,7.026,3.303,13.978,5.512,20.799c17.966-3.438,36.963,4.705,46.465,21.174c9.485,16.431,7.06,36.933-4.866,50.779 c4.632,5.137,9.541,10.045,14.692,14.689c13.838-11.923,34.332-14.352,50.768-4.874c16.454,9.505,24.602,28.495,21.177,46.463 c6.568,2.127,13.274,3.918,20.065,5.357C220.467,472.122,237.012,459.759,256,459.759z"/></g><g id="change1_4"><path d="M318.97,290.999H193.03c-5.523,0-10-4.478-10-10c0-5.523,4.477-10,10-10H318.97 c5.522,0,10,4.477,10,10C328.97,286.522,324.492,290.999,318.97,290.999z"/></g><g id="change1_3"><path d="M256,350.999c-38.226,0-68.209-32.959-64.727-70.913c0.472-5.147,4.789-9.087,9.958-9.087H310.77 c5.169,0,9.486,3.939,9.958,9.087C324.207,318.02,294.243,350.999,256,350.999z M211.276,290.999 c2.495,22.469,21.601,40,44.724,40s42.228-17.531,44.724-40H211.276z"/></g></g></g></g></svg>